Coordinates
version=1
nRows=14
nColumns=33
inDegrees=yes

Units are S.I. units (second, meters, Newtons, ...)
Angles are in degrees.

endheader
time	ground_thorax_rot_x	ground_thorax_rot_y	ground_thorax_rot_z	ground_thorax_tx	ground_thorax_ty	ground_thorax_tz	clav_prot_r	clav_elev_r	scapula_abduction_r	scapula_elevation_r	scapula_upward_rot_r	scapula_winging_r	shoulder_elv_r	plane_of_elev_r	axial_rot_r	elbow_flexion_r	pro_sup_r	wrist_flex_r	wrist_dev_r	clav_prot_l	clav_elev_l	scapula_abduction_l	scapula_elevation_l	scapula_upward_rot_l	scapula_winging_l	shoulder_elv_l	plane_of_elev_l	axial_rot_l	elbow_flexion_l	pro_sup_l	wrist_flex_l	wrist_dev_l	
9.2200	37.801725	6.829710	19.058563	-228.884279	830.465834	-5.923064	8.567728	43.224087	36.381605	44.996319	-15.509698	1337.541313	-1381.517646	18.605487	-180.000000	1084.952135	-96.585320	18.274793	10.436814	11.448936	-45.000000	-32.262723	45.000000	-45.000000	-1339.956306	-1365.713153	11.788407	-71.922437	8.951831	32.492457	10.457222	-21.608990	
9.2300	37.991829	6.573538	18.478843	-229.849444	832.351471	-6.162090	8.028438	43.270567	36.909464	44.992355	-13.695821	1336.490381	-1381.274590	18.302935	-180.000000	1085.266014	-96.270579	18.363490	10.494980	11.469307	-45.000000	-32.372183	45.000000	-45.000000	-1339.990914	-1365.851252	11.947957	-71.651827	8.952733	32.324240	10.300235	-21.671648	
9.2400	38.160551	6.343964	17.951892	-230.744891	834.208251	-6.389639	7.483402	43.420248	37.407826	44.989239	-11.915378	1335.483845	-1381.031211	18.004937	-180.000000	1085.590194	-95.932197	18.407172	10.560093	11.505650	-45.000000	-32.484623	45.000000	-45.000000	-1340.029869	-1365.952259	12.063238	-71.408309	8.962696	32.182161	10.157993	-21.757511	
9.2500	38.298529	6.137078	17.495758	-231.488368	836.005039	-6.598939	7.124342	43.470433	37.792348	44.986896	-10.660697	1334.758426	-1380.876522	17.821875	-180.000000	1085.792725	-95.518994	18.505164	10.585930	11.538146	-45.000000	-32.591801	45.000000	-45.000000	-1340.043909	-1365.995012	12.169700	-71.222766	9.008312	32.104171	10.033091	-21.808416	
9.2600	38.406588	5.974998	17.124908	-232.072849	837.734300	-6.781299	6.872003	43.527755	38.087687	44.988027	-9.737640	1334.225742	-1380.765705	17.704977	-180.000000	1085.926212	-95.043879	18.603904	10.591779	11.575638	-45.000000	-32.697617	45.000000	-45.000000	-1340.044866	-1365.976116	12.243214	-71.087975	9.085619	32.089872	9.927613	-21.854274	
9.2700	38.493374	5.850327	16.823265	-232.481649	839.384296	-6.927796	6.711468	43.575456	38.307727	44.989544	-9.103588	1333.864589	-1380.688036	17.647590	-180.000000	1085.996073	-94.506604	18.709187	10.579587	11.618003	-45.000000	-32.803786	45.000000	-45.000000	-1340.037154	-1365.919604	12.298411	-70.999692	9.180136	32.147197	9.830981	-21.889400	
9.2800	38.565874	5.774738	16.591808	-232.719444	840.949755	-7.030861	6.592314	43.648682	38.462943	44.993680	-8.637421	1333.621392	-1380.613493	17.621263	-180.000000	1086.027926	-93.914866	18.801252	10.558279	11.671315	-45.000000	-32.907906	45.000000	-45.000000	-1340.024624	-1365.834869	12.333104	-70.948458	9.283121	32.276040	9.739851	-21.922931	
9.2900	38.637652	5.719798	16.388591	-232.800730	842.428756	-7.085827	6.480204	43.712894	38.586914	44.997127	-8.231503	1333.436749	-1380.533444	17.609391	-180.000000	1086.038075	-93.280754	18.892269	10.533566	11.735904	-45.000000	-33.017454	45.000000	-45.000000	-1340.011226	-1365.756652	12.372648	-70.920750	9.383789	32.472668	9.638029	-21.953258	
9.3000	38.708219	5.696893	16.211160	-232.740053	843.819857	-7.091842	6.366220	43.772742	38.664231	45.000000	-7.866128	1333.306840	-1380.444965	17.606599	-180.000000	1086.029899	-92.608682	18.977355	10.506834	11.811336	-45.000000	-33.134980	45.000000	-45.000000	-1340.000108	-1365.674343	12.416174	-70.916119	9.492839	32.734817	9.532099	-21.986902	
9.3100	38.785490	5.665431	16.038176	-232.551417	845.122863	-7.051518	6.269786	43.816823	38.775381	45.000000	-7.528454	1333.170033	-1380.357573	17.614700	-180.000000	1086.010229	-91.880572	19.064222	10.478440	11.878773	-45.000000	-33.242248	45.000000	-45.000000	-1339.995273	-1365.594468	12.469414	-70.939438	9.611488	33.069227	9.416183	-22.020764	
9.3200	38.865790	5.634752	15.875383	-232.247999	846.338837	-6.970001	6.169753	43.859476	38.904290	45.000000	-7.186449	1333.035380	-1380.258690	17.616110	-180.000000	1085.982117	-91.086553	19.145783	10.448771	11.946273	-45.000000	-33.344720	45.000000	-45.000000	-1339.996282	-1365.509825	12.525002	-70.968923	9.741919	33.467413	9.295672	-22.059349	
9.3300	38.954557	5.571690	15.699824	-231.841866	847.470827	-6.853804	6.084625	43.894879	39.118868	45.000000	-6.823839	1332.842816	-1380.161355	17.613905	-180.000000	1085.954470	-90.203698	19.228220	10.418326	11.996566	-45.000000	-33.434870	45.000000	-45.000000	-1340.009482	-1365.421451	12.587865	-70.998549	9.895193	33.926456	9.168897	-22.104849	
9.3400	39.051102	5.492053	15.507245	-231.343907	848.523960	-6.709772	5.997899	43.942506	39.382872	45.000000	-6.396254	1332.595131	-1380.053908	17.607095	-180.000000	1085.937054	-89.212708	19.302697	10.389387	12.032002	-45.000000	-33.520643	45.000000	-44.999999	-1340.048345	-1365.329438	12.653227	-71.009906	10.065076	34.436522	9.045770	-22.161230	
9.3500	39.160742	5.378825	15.293444	-230.763690	849.506256	-6.544399	5.927383	44.009218	39.741039	45.000000	-5.886535	1332.245526	-1379.937931	17.603846	-180.000000	1085.937176	-88.070258	19.370178	10.360525	12.036555	-45.000000	-33.583092	45.000000	-44.999999	-1340.117103	-1365.241930	12.721505	-71.001189	10.240771	35.001349	8.919233	-22.220382	
